<?xml version="1.0" encoding="UTF-8"?>
<svg xmlns="http://www.w3.org/2000/svg" xmlns:xlink="http://www.w3.org/1999/xlink" width="129px" height="146px" viewBox="0 0 129 102" version="1.1">
<defs>
<linearGradient id="linear0" gradientUnits="userSpaceOnUse" x1="76" y1="10" x2="523" y2="365" gradientTransform="matrix(0.251953,0,0,0.25,0,0)">
<stop offset="0" style="stop-color:rgb(56.470588%,7.45098%,99.607843%);stop-opacity:1;"/>
<stop offset="1" style="stop-color:rgb(40%,6.27451%,94.901961%);stop-opacity:1;"/>
</linearGradient>
</defs>
<g id="surface1">
<path style=" stroke:none;fill-rule:nonzero;fill:url(#linear0);" d="M 14.230469 13.328125 C 13.988281 6.394531 19.433594 0 26.792969 0 L 102.21875 0 C 109.578125 0 115.023438 6.394531 114.78125 13.328125 C 114.546875 19.992188 114.847656 28.621094 117.039062 35.65625 C 119.234375 42.714844 122.933594 47.175781 129 47.75 L 129 54.25 C 122.933594 54.824219 119.234375 59.285156 117.039062 66.34375 C 114.847656 73.378906 114.546875 82.007812 114.78125 88.671875 C 115.023438 95.605469 109.578125 102 102.21875 102 L 26.792969 102 C 19.433594 102 13.988281 95.605469 14.230469 88.671875 C 14.464844 82.007812 14.160156 73.378906 11.972656 66.34375 C 9.777344 59.285156 6.066406 54.824219 0 54.25 L 0 47.75 C 6.066406 47.175781 9.777344 42.714844 11.972656 35.65625 C 14.160156 28.621094 14.464844 19.992188 14.230469 13.328125 Z M 14.230469 13.328125 "/>
<path style=" stroke:none;fill-rule:evenodd;fill:rgb(100%,100%,100%);fill-opacity:1;" d="M 86.394531 62.773438 C 86.394531 72.324219 79.214844 78.113281 67.296875 78.113281 L 44.824219 78.113281 L 44.824219 23.863281 L 67.179688 23.863281 C 77.117188 23.863281 83.636719 29.203125 83.636719 37.398438 C 83.636719 43.148438 79.253906 48.300781 73.664062 49.203125 L 73.664062 49.503906 C 81.273438 50.332031 86.394531 55.558594 86.394531 62.773438 Z M 53.515625 71.234375 L 53.515625 53.378906 L 65.007812 53.378906 C 73.234375 53.378906 77.503906 56.386719 77.503906 62.25 C 77.503906 68.113281 73.355469 71.234375 65.511719 71.234375 Z M 53.515625 30.746094 L 65.085938 30.746094 C 71.375 30.746094 74.945312 33.527344 74.945312 38.566406 C 74.945312 43.941406 70.792969 46.949219 63.261719 46.949219 L 53.515625 46.949219 Z M 53.515625 30.746094 "/>
</g>
</svg>
