<?xml version="1.0" encoding="UTF-8"?>
<svg xmlns="http://www.w3.org/2000/svg" xmlns:xlink="http://www.w3.org/1999/xlink" width="129px" height="146px" viewBox="0 0 129 146" version="1.1">
<g id="surface1">
<path style=" stroke:none;fill-rule:evenodd;fill:rgb(89.411765%,30.196078%,14.901961%);fill-opacity:1;" d="M 129 0.308594 L 117.25 131.140625 L 64.421875 145.691406 L 11.738281 131.164062 L 0 0.308594 Z M 129 0.308594 "/>
<path style=" stroke:none;fill-rule:evenodd;fill:rgb(94.509804%,39.607843%,16.078431%);fill-opacity:1;" d="M 64.492188 134.570312 L 107.1875 122.8125 L 117.226562 11.003906 L 64.492188 11.003906 Z M 64.492188 134.570312 "/>
<path style=" stroke:none;fill-rule:evenodd;fill:rgb(92.156863%,92.156863%,92.156863%);fill-opacity:1;" d="M 41.660156 43.101562 L 64.507812 43.101562 L 64.507812 27.058594 L 24.003906 27.058594 L 24.382812 31.363281 L 28.347656 75.589844 L 64.480469 75.589844 L 64.480469 59.535156 L 43.136719 59.535156 Z M 45.289062 83.613281 L 29.085938 83.613281 L 31.347656 108.8125 L 64.433594 117.9375 L 64.507812 117.914062 L 64.507812 101.21875 L 64.433594 101.242188 L 46.445312 96.414062 Z M 45.289062 83.613281 "/>
<path style=" stroke:none;fill-rule:evenodd;fill:rgb(100%,100%,100%);fill-opacity:1;" d="M 64.445312 75.589844 L 84.328125 75.589844 L 82.460938 96.402344 L 64.445312 101.230469 L 64.445312 117.925781 L 97.554688 108.800781 L 97.792969 106.09375 L 101.59375 63.84375 L 101.984375 59.535156 L 64.445312 59.535156 Z M 64.445312 43.066406 L 64.445312 43.101562 L 103.449219 43.101562 L 103.769531 39.492188 L 104.507812 31.351562 L 104.890625 27.046875 L 64.445312 27.046875 Z M 64.445312 43.066406 "/>
</g>
</svg>
