<?xml version="1.0" encoding="UTF-8"?>
<svg xmlns="http://www.w3.org/2000/svg" xmlns:xlink="http://www.w3.org/1999/xlink" width="129px" height="146px" viewBox="0 0 129 129" version="1.1">
<g id="surface1">
<rect x="0" y="0" width="129" height="129" style="fill:rgb(96.862745%,87.45098%,11.764706%);fill-opacity:1;stroke:none;"/>
<path style=" stroke:none;fill-rule:evenodd;fill:rgb(0%,0%,0%);fill-opacity:1;" d="M 33.917969 107.804688 L 43.789062 101.832031 C 45.6875 105.210938 47.417969 108.066406 51.578125 108.066406 C 55.554688 108.066406 58.074219 106.511719 58.074219 100.445312 L 58.074219 59.21875 L 70.199219 59.21875 L 70.199219 100.613281 C 70.199219 113.167969 62.839844 118.878906 52.101562 118.878906 C 42.402344 118.878906 36.773438 113.863281 33.917969 107.804688 Z M 76.78125 106.503906 L 86.652344 100.792969 C 89.253906 105.03125 92.625 108.152344 98.597656 108.152344 C 103.617188 108.152344 106.828125 105.640625 106.828125 102.175781 C 106.828125 98.019531 103.542969 96.550781 98 94.125 L 94.964844 92.824219 C 86.21875 89.097656 80.414062 84.425781 80.414062 74.558594 C 80.414062 65.464844 87.34375 58.539062 98.167969 58.539062 C 105.871094 58.539062 111.414062 61.226562 115.394531 68.238281 L 105.957031 74.292969 C 103.878906 70.566406 101.632812 69.097656 98.167969 69.097656 C 94.617188 69.097656 92.363281 71.34375 92.363281 74.292969 C 92.363281 77.925781 94.609375 79.40625 99.804688 81.652344 L 102.839844 82.957031 C 113.148438 87.375 118.941406 91.878906 118.941406 102.007812 C 118.941406 112.917969 110.367188 118.890625 98.851562 118.890625 C 87.605469 118.890625 80.332031 113.515625 76.78125 106.503906 Z M 76.78125 106.503906 Z M 76.78125 106.503906 "/>
</g>
</svg>
