<?xml version="1.0" encoding="UTF-8"?>
<svg xmlns="http://www.w3.org/2000/svg" xmlns:xlink="http://www.w3.org/1999/xlink" width="129px" height="146px" viewBox="0 0 129 88" version="1.1">
<g id="surface1">
<path style=" stroke:none;fill-rule:evenodd;fill:rgb(98.431373%,31.372549%,23.137255%);fill-opacity:1;" d="M 128.324219 41.117188 C 127.402344 40.199219 115.632812 25.386719 113.644531 22.9375 C 111.507812 20.492188 110.585938 20.953125 109.203125 21.109375 C 107.832031 21.265625 92.992188 23.859375 91.308594 24.003906 C 89.621094 24.308594 88.554688 24.925781 89.621094 26.453125 C 90.542969 27.824219 100.324219 41.578125 102.46875 44.789062 L 63.472656 54.109375 L 32.582031 2.3125 C 31.355469 0.480469 31.054688 -0.136719 28.300781 0.0195312 C 25.546875 0.179688 3.984375 2.007812 2.457031 2.007812 C 0.917969 2.164062 -0.757812 2.773438 0.769531 6.445312 C 2.296875 10.105469 26.769531 62.65625 27.378906 64.183594 C 27.984375 65.710938 29.828125 68.15625 33.953125 67.238281 C 38.238281 66.171875 52.917969 62.351562 61.023438 60.207031 C 65.304688 67.84375 73.871094 83.429688 75.558594 85.71875 C 77.695312 88.773438 79.234375 88.167969 82.4375 87.246094 C 85.035156 86.484375 122.511719 73.042969 124.1875 72.277344 C 125.875 71.515625 126.941406 71.054688 125.71875 69.371094 C 124.796875 68.148438 115.015625 54.851562 109.8125 47.980469 C 113.328125 47.058594 126.019531 43.703125 127.402344 43.242188 C 128.933594 42.800781 129.234375 42.039062 128.324219 41.117188 Z M 57.503906 55.636719 C 57.042969 55.792969 35.179688 60.980469 34.101562 61.285156 C 32.875 61.589844 32.875 61.441406 32.875 60.980469 C 32.582031 60.523438 6.886719 7.351562 6.425781 6.746094 C 6.121094 6.140625 6.121094 5.523438 6.425781 5.523438 C 6.726562 5.523438 27.074219 3.691406 27.683594 3.691406 C 28.445312 3.691406 28.289062 3.847656 28.601562 4.300781 C 28.601562 4.300781 57.203125 53.648438 57.660156 54.414062 C 58.269531 55.175781 57.964844 55.480469 57.503906 55.636719 Z M 118.996094 67.089844 C 119.296875 67.695312 119.757812 68.011719 118.535156 68.3125 C 117.464844 68.773438 81.671875 80.84375 80.910156 81.148438 C 80.144531 81.453125 79.683594 81.609375 78.773438 80.226562 C 77.851562 78.859375 66.226562 58.835938 66.226562 58.835938 L 104.3125 48.910156 C 105.234375 48.609375 105.539062 48.449219 106.144531 49.371094 C 106.753906 50.4375 118.691406 66.628906 118.996094 67.089844 Z M 121.433594 40.199219 C 120.511719 40.355469 106.597656 43.871094 106.597656 43.871094 L 95.128906 28.285156 C 94.824219 27.824219 94.523438 27.363281 95.285156 27.21875 C 96.050781 27.058594 109.058594 24.769531 109.664062 24.621094 C 110.269531 24.464844 110.730469 24.320312 111.496094 25.386719 C 112.261719 26.308594 122.050781 38.828125 122.511719 39.289062 C 122.964844 39.746094 122.355469 40.050781 121.433594 40.199219 Z M 121.433594 40.199219 "/>
</g>
</svg>
