<?xml version="1.0" encoding="UTF-8"?>
<svg xmlns="http://www.w3.org/2000/svg" xmlns:xlink="http://www.w3.org/1999/xlink" width="129px" height="146px" viewBox="0 0 129 88" version="1.1">
<g id="surface1">
<path style=" stroke:none;fill-rule:nonzero;fill:rgb(0%,45.882353%,56.078431%);fill-opacity:1;" d="M 31.011719 80.066406 L 26.035156 80.066406 C 25.867188 71.679688 25.382812 63.765625 24.585938 56.328125 L 16.964844 80.066406 L 13.175781 80.066406 L 5.636719 56.328125 C 5.085938 63.449219 4.734375 71.363281 4.585938 80.066406 L 0 80.066406 C 0.292969 69.476562 1.027344 59.546875 2.203125 50.277344 L 8.398438 50.277344 L 15.578125 72.160156 L 22.800781 50.277344 L 28.703125 50.277344 C 29.988281 61.125 30.753906 71.058594 30.988281 80.066406 Z M 31.011719 80.066406 Z M 31.011719 80.066406 "/>
<path style=" stroke:none;fill-rule:nonzero;fill:rgb(0%,45.882353%,56.078431%);fill-opacity:1;" d="M 52.605469 58.089844 C 50.582031 69.085938 47.910156 77.089844 44.585938 82.101562 C 42.003906 85.953125 39.167969 87.875 36.082031 87.871094 C 35.03125 87.820312 34.003906 87.570312 33.046875 87.136719 L 33.046875 84.484375 C 33.742188 84.574219 34.445312 84.617188 35.148438 84.609375 C 36.417969 84.667969 37.660156 84.238281 38.621094 83.414062 C 39.601562 82.609375 40.183594 81.417969 40.207031 80.152344 C 40.003906 78.417969 39.589844 76.714844 38.980469 75.078125 L 33.519531 58.089844 L 38.402344 58.089844 L 42.328125 70.796875 C 43.210938 73.683594 43.578125 75.699219 43.429688 76.839844 C 45.652344 70.785156 47.160156 64.492188 47.921875 58.089844 Z M 52.605469 58.089844 Z M 52.605469 58.089844 "/>
<path style=" stroke:none;fill-rule:nonzero;fill:rgb(94.901961%,56.862745%,6.666667%);fill-opacity:1;" d="M 74.410156 71.804688 C 74.472656 74.191406 73.453125 76.480469 71.636719 78.035156 C 69.542969 79.730469 66.890625 80.59375 64.195312 80.457031 C 61.164062 80.425781 58.210938 79.476562 55.734375 77.730469 L 57.015625 75.171875 C 58.976562 76.242188 61.164062 76.847656 63.398438 76.933594 C 64.890625 77.015625 66.367188 76.597656 67.597656 75.746094 C 68.632812 74.960938 69.230469 73.730469 69.214844 72.433594 C 69.214844 70.671875 67.984375 69.164062 65.71875 67.894531 C 63.617188 66.738281 59.417969 64.347656 59.417969 64.347656 C 57.238281 63.011719 55.9375 60.613281 56.019531 58.058594 C 55.941406 55.824219 56.875 53.675781 58.558594 52.207031 C 60.378906 50.667969 62.714844 49.871094 65.097656 49.972656 C 67.769531 49.949219 70.390625 50.71875 72.625 52.183594 L 71.542969 54.660156 C 69.742188 53.859375 67.792969 53.441406 65.824219 53.421875 C 64.558594 53.320312 63.300781 53.695312 62.296875 54.46875 C 61.457031 55.171875 60.96875 56.207031 60.960938 57.300781 C 60.960938 59.0625 62.222656 60.59375 64.542969 61.882812 C 66.640625 63.027344 70.925781 65.472656 70.925781 65.472656 C 73.253906 67.117188 74.410156 68.878906 74.410156 71.761719 Z M 74.410156 71.804688 Z M 74.410156 71.804688 "/>
<path style=" stroke:none;fill-rule:evenodd;fill:rgb(94.901961%,56.862745%,6.666667%);fill-opacity:1;" d="M 83.300781 74.101562 C 82.105469 72.160156 81.496094 69.046875 81.496094 64.757812 C 81.496094 57.25 83.773438 53.5 88.332031 53.507812 C 90.441406 53.363281 92.460938 54.394531 93.578125 56.191406 C 94.789062 58.128906 95.390625 61.21875 95.386719 65.460938 C 95.386719 73.023438 93.109375 76.804688 88.5625 76.796875 C 86.449219 76.9375 84.433594 75.902344 83.3125 74.113281 Z M 101.011719 80.78125 L 95.53125 78.085938 C 96.027344 77.6875 96.484375 77.238281 96.898438 76.753906 C 99.21875 74.019531 100.382812 69.976562 100.382812 64.621094 C 100.382812 54.765625 96.53125 49.835938 88.835938 49.835938 C 85.449219 49.652344 82.167969 51.046875 79.953125 53.609375 C 77.636719 56.351562 76.476562 60.382812 76.476562 65.703125 C 76.476562 71.023438 77.507812 74.867188 79.566406 77.238281 C 81.433594 79.4375 84.269531 80.550781 88.058594 80.550781 C 89.375 80.5625 90.6875 80.386719 91.953125 80.027344 L 99.070312 84.167969 L 101.011719 80.824219 Z M 101.011719 80.78125 Z M 101.011719 80.78125 "/>
<path style=" stroke:none;fill-rule:nonzero;fill:rgb(94.901961%,56.862745%,6.666667%);fill-opacity:1;" d="M 118.859375 80.066406 L 104.71875 80.066406 L 104.71875 50.277344 L 109.472656 50.277344 L 109.472656 76.398438 L 118.859375 76.398438 Z M 118.859375 80.066406 "/>
<path style=" stroke:none;fill-rule:nonzero;fill:rgb(94.901961%,56.862745%,6.666667%);fill-opacity:1;" d="M 122.25 80.058594 L 123.039062 80.058594 L 123.039062 77.027344 L 124.085938 77.027344 L 124.085938 76.410156 L 121.1875 76.410156 L 121.1875 77.027344 L 122.238281 77.027344 L 122.238281 80.058594 Z M 128.253906 80.058594 L 129 80.058594 L 129 76.410156 L 127.875 76.410156 L 126.964844 78.902344 L 125.976562 76.410156 L 124.925781 76.410156 L 124.925781 80.058594 L 125.628906 80.058594 L 125.628906 77.289062 L 126.679688 80.058594 L 127.214844 80.058594 L 128.265625 77.289062 L 128.265625 80.058594 Z M 128.253906 80.058594 Z M 128.253906 80.058594 "/>
<path style=" stroke:none;fill-rule:evenodd;fill:rgb(0%,45.882353%,56.078431%);fill-opacity:1;" d="M 124.832031 40.304688 C 122.460938 40.152344 120.082031 40.507812 117.863281 41.351562 C 117.328125 41.574219 116.464844 41.574219 116.390625 42.253906 C 116.675781 42.539062 116.707031 43.007812 116.96875 43.40625 C 117.457031 44.242188 118.085938 44.984375 118.828125 45.597656 C 119.582031 46.175781 120.339844 46.753906 121.136719 47.257812 C 122.53125 48.117188 124.117188 48.621094 125.472656 49.488281 C 126.269531 49.992188 127.058594 50.632812 127.855469 51.179688 C 128.242188 51.460938 128.496094 51.933594 129 52.109375 L 129 52.007812 C 128.75 51.679688 128.675781 51.210938 128.421875 50.851562 L 127.371094 49.804688 C 126.316406 48.410156 125.058594 47.183594 123.636719 46.164062 C 122.480469 45.367188 119.960938 44.289062 119.5 43.019531 L 119.425781 42.945312 C 120.269531 42.824219 121.097656 42.628906 121.902344 42.359375 C 123.132812 42.042969 124.246094 42.117188 125.492188 41.792969 C 126.070312 41.644531 126.648438 41.46875 127.226562 41.289062 L 127.226562 40.964844 C 126.574219 40.3125 126.113281 39.453125 125.429688 38.867188 C 123.566406 37.246094 121.585938 35.765625 119.5 34.441406 C 118.386719 33.730469 116.949219 33.257812 115.761719 32.648438 C 115.332031 32.429688 114.617188 32.324219 114.367188 31.957031 C 113.773438 31.089844 113.277344 30.160156 112.886719 29.1875 C 111.835938 27.214844 110.785156 24.992188 109.945312 22.894531 C 109.421875 21.46875 108.816406 20.070312 108.128906 18.710938 C 104.789062 13.042969 99.964844 8.386719 94.179688 5.246094 C 92.722656 4.539062 91.175781 4.046875 89.578125 3.78125 C 88.6875 3.78125 87.785156 3.664062 86.890625 3.632812 C 86.308594 3.253906 85.753906 2.832031 85.234375 2.375 C 83.132812 1.074219 77.886719 -1.726562 76.394531 1.976562 C 75.429688 4.324219 77.832031 6.621094 78.660156 7.804688 C 79.355469 8.644531 79.964844 9.546875 80.488281 10.5 C 80.742188 11.121094 80.8125 11.769531 81.066406 12.410156 C 81.59375 14.054688 82.21875 15.664062 82.933594 17.234375 C 83.324219 18.007812 83.769531 18.757812 84.269531 19.46875 C 84.550781 19.867188 85.054688 20.042969 85.160156 20.695312 C 84.765625 21.550781 84.492188 22.457031 84.339844 23.390625 C 83.039062 27.457031 83.542969 32.492188 85.390625 35.480469 C 85.957031 36.382812 87.332031 38.363281 89.160156 37.578125 C 90.777344 36.9375 90.417969 34.882812 90.890625 33.089844 C 90.996094 32.648438 90.890625 32.367188 91.132812 32.039062 L 91.132812 32.101562 C 91.636719 33.152344 92.183594 34.085938 92.613281 35.089844 C 93.886719 36.964844 95.460938 38.617188 97.273438 39.976562 C 98.136719 40.628906 98.816406 41.738281 99.898438 42.136719 L 99.898438 42.074219 L 99.824219 42.074219 C 99.582031 41.800781 99.304688 41.554688 98.996094 41.351562 C 98.316406 40.683594 97.691406 39.960938 97.128906 39.191406 C 95.605469 37.125 94.257812 34.933594 93.105469 32.636719 C 92.53125 31.515625 92.058594 30.289062 91.5625 29.175781 C 91.34375 28.746094 91.34375 28.128906 90.988281 27.886719 C 90.308594 28.621094 89.71875 29.429688 89.234375 30.300781 C 88.632812 32.050781 88.277344 33.878906 88.183594 35.730469 C 88.035156 35.730469 88.109375 35.730469 88.035156 35.804688 C 86.890625 35.511719 86.492188 34.328125 86.0625 33.320312 C 84.941406 30.230469 84.828125 26.871094 85.738281 23.714844 C 85.988281 22.960938 87.070312 20.566406 86.628906 19.867188 C 86.417969 19.171875 85.695312 18.816406 85.308594 18.238281 C 84.800781 17.519531 84.371094 16.75 84.015625 15.945312 C 83.15625 13.917969 82.714844 11.695312 81.789062 9.652344 C 81.265625 8.679688 80.660156 7.753906 79.984375 6.882812 C 79.238281 6.015625 78.574219 5.078125 78.011719 4.082031 C 77.832031 3.683594 77.582031 3.035156 77.863281 2.605469 C 77.910156 2.351562 78.113281 2.160156 78.367188 2.132812 C 78.839844 1.734375 80.164062 2.238281 80.636719 2.457031 C 81.914062 2.941406 83.132812 3.566406 84.269531 4.324219 C 84.773438 4.679688 85.316406 5.375 85.949219 5.542969 L 86.703125 5.542969 C 87.859375 5.792969 89.148438 5.613281 90.230469 5.941406 C 92.054688 6.546875 93.792969 7.382812 95.40625 8.425781 C 100.167969 11.464844 104.03125 15.714844 106.609375 20.734375 C 107.046875 21.554688 107.226562 22.320312 107.65625 23.179688 C 108.414062 24.941406 109.347656 26.746094 110.101562 28.421875 C 110.765625 30.121094 111.625 31.742188 112.65625 33.246094 C 113.199219 34 115.351562 34.398438 116.320312 34.796875 C 117.164062 35.101562 117.996094 35.453125 118.804688 35.847656 C 120.023438 36.601562 121.242188 37.460938 122.398438 38.289062 C 122.964844 38.730469 124.769531 39.621094 124.875 40.386719 Z M 124.832031 40.304688 Z M 124.832031 40.304688 "/>
<path style=" stroke:none;fill-rule:evenodd;fill:rgb(0%,45.882353%,56.078431%);fill-opacity:1;" d="M 88.183594 9.023438 C 87.683594 9.015625 87.1875 9.082031 86.703125 9.210938 L 86.703125 9.285156 L 86.777344 9.285156 C 87.125 9.800781 87.511719 10.292969 87.929688 10.753906 C 88.214844 11.328125 88.46875 11.90625 88.75 12.484375 L 88.824219 12.410156 C 89.367188 11.980469 89.652344 11.304688 89.578125 10.617188 C 89.371094 10.363281 89.328125 10.113281 89.148438 9.863281 C 88.972656 9.609375 88.46875 9.328125 88.183594 9.03125 Z M 88.183594 9.023438 Z M 88.183594 9.023438 "/>
</g>
</svg>
