<?xml version="1.0" encoding="UTF-8"?>
<svg xmlns="http://www.w3.org/2000/svg" xmlns:xlink="http://www.w3.org/1999/xlink" width="129px" height="146px" viewBox="0 0 129 65" version="1.1">
<g id="surface1">
<path style=" stroke:none;fill-rule:evenodd;fill:rgb(40.784314%,51.764706%,72.941176%);fill-opacity:1;" d="M 64.5 65 C 99.929688 65 128.65625 50.449219 128.65625 32.496094 C 128.65625 14.550781 99.929688 0 64.5 0 C 29.070312 0 0.34375 14.550781 0.34375 32.503906 C 0.34375 50.449219 29.070312 65 64.5 65 Z M 98.375 26.085938 C 97.882812 25.542969 96.589844 25.269531 94.480469 25.269531 L 91.296875 25.269531 L 89.425781 34.863281 L 91.253906 34.863281 C 92.539062 34.863281 93.625 34.75 94.53125 34.519531 C 95.324219 34.320312 95.960938 34.039062 96.441406 33.675781 C 96.914062 33.320312 97.308594 32.820312 97.644531 32.171875 C 98.019531 31.449219 98.324219 30.554688 98.53125 29.476562 C 98.730469 28.476562 98.78125 27.652344 98.699219 26.992188 C 98.644531 26.566406 98.542969 26.261719 98.375 26.085938 Z M 57.316406 7.160156 L 64.425781 7.160156 C 65.574219 7.160156 66.515625 8.101562 66.515625 9.25 C 66.515625 9.425781 66.496094 9.601562 66.453125 9.769531 L 65.261719 15.898438 L 69.0625 15.898438 C 71.226562 15.898438 73.074219 16.097656 74.617188 16.480469 C 76.332031 16.921875 77.699219 17.597656 78.722656 18.539062 C 79.609375 19.351562 80.238281 20.355469 80.613281 21.542969 L 81.355469 17.714844 C 81.488281 16.691406 82.367188 15.898438 83.421875 15.898438 L 97.207031 15.898438 C 99.503906 15.898438 101.527344 16.210938 103.28125 16.847656 C 105.132812 17.515625 106.65625 18.527344 107.847656 19.886719 C 109.046875 21.261719 109.832031 22.890625 110.183594 24.78125 C 110.519531 26.566406 110.476562 28.550781 110.050781 30.75 C 109.871094 31.640625 109.632812 32.515625 109.328125 33.371094 C 109.027344 34.21875 108.660156 35.019531 108.234375 35.78125 C 107.792969 36.554688 107.304688 37.296875 106.761719 37.976562 C 106.207031 38.664062 105.589844 39.332031 104.910156 39.949219 C 104.085938 40.71875 103.21875 41.378906 102.3125 41.921875 C 101.371094 42.484375 100.402344 42.921875 99.386719 43.257812 C 98.40625 43.582031 97.277344 43.820312 96.027344 43.976562 C 94.78125 44.132812 93.457031 44.21875 92.058594 44.21875 L 87.640625 44.21875 L 86.261719 51.148438 C 86.125 52.171875 85.25 52.964844 84.195312 52.964844 L 77.03125 52.964844 C 76.90625 52.964844 76.769531 52.953125 76.632812 52.921875 C 75.507812 52.703125 74.765625 51.617188 74.972656 50.480469 L 76.207031 44.144531 C 76.039062 44.1875 75.859375 44.207031 75.683594 44.207031 L 68.457031 44.207031 C 67.308594 44.207031 66.371094 43.265625 66.371094 42.117188 C 66.371094 41.941406 66.390625 41.765625 66.433594 41.597656 L 69.230469 27.179688 C 69.355469 26.542969 69.398438 26.054688 69.355469 25.699219 C 69.34375 25.59375 69.429688 25.648438 69.398438 25.605469 L 69.105469 25.53125 C 68.6875 25.429688 68.101562 25.375 67.351562 25.375 L 63.382812 25.375 L 60.074219 42.527344 C 59.882812 43.527344 59.007812 44.21875 58.027344 44.21875 L 50.914062 44.21875 C 49.765625 44.21875 48.824219 43.277344 48.824219 42.128906 C 48.824219 41.953125 48.847656 41.773438 48.890625 41.609375 L 49.265625 39.65625 L 48.953125 39.949219 C 48.125 40.71875 47.257812 41.378906 46.351562 41.921875 C 45.410156 42.484375 44.441406 42.921875 43.425781 43.257812 C 42.445312 43.582031 41.316406 43.820312 40.066406 43.976562 C 38.824219 44.132812 37.496094 44.21875 36.097656 44.21875 L 31.667969 44.21875 L 30.320312 51.148438 C 30.1875 52.171875 29.308594 52.964844 28.253906 52.964844 L 21.089844 52.964844 C 20.964844 52.964844 20.832031 52.953125 20.695312 52.921875 C 19.566406 52.703125 18.824219 51.617188 19.035156 50.480469 L 25.402344 17.714844 C 25.539062 16.691406 26.417969 15.898438 27.472656 15.898438 L 41.253906 15.898438 C 43.550781 15.898438 45.578125 16.210938 47.332031 16.847656 C 49.191406 17.515625 50.707031 18.527344 51.894531 19.886719 C 52.25 20.292969 52.574219 20.730469 52.867188 21.191406 L 55.269531 8.863281 C 55.457031 7.859375 56.335938 7.160156 57.316406 7.160156 Z M 42.445312 26.085938 C 41.953125 25.542969 40.660156 25.269531 38.550781 25.269531 L 35.355469 25.269531 L 33.484375 34.863281 L 35.3125 34.863281 C 36.597656 34.863281 37.683594 34.75 38.59375 34.519531 C 39.386719 34.320312 40.023438 34.039062 40.503906 33.675781 C 40.972656 33.320312 41.371094 32.820312 41.703125 32.171875 C 42.082031 31.449219 42.382812 30.554688 42.59375 29.476562 C 42.789062 28.476562 42.84375 27.652344 42.757812 26.992188 C 42.707031 26.566406 42.601562 26.261719 42.445312 26.085938 Z M 42.445312 26.085938 "/>
<path style=" stroke:none;fill-rule:evenodd;fill:rgb(0%,0%,0%);fill-opacity:1;" d="M 94.480469 23.183594 C 97.207031 23.183594 99.023438 23.683594 99.921875 24.6875 C 100.828125 25.6875 101.039062 27.410156 100.566406 29.863281 C 100.078125 32.410156 99.117188 34.226562 97.707031 35.3125 C 96.296875 36.398438 94.136719 36.941406 91.253906 36.941406 L 86.898438 36.941406 L 89.570312 23.171875 L 94.480469 23.171875 Z M 57.316406 9.25 L 64.425781 9.25 L 62.726562 17.996094 L 69.0625 17.996094 C 73.050781 17.996094 75.796875 18.695312 77.3125 20.082031 C 78.828125 21.472656 79.277344 23.726562 78.671875 26.835938 L 75.695312 42.140625 L 68.46875 42.140625 L 71.296875 27.589844 C 71.621094 25.929688 71.496094 24.800781 70.941406 24.207031 C 70.378906 23.601562 69.199219 23.296875 67.371094 23.296875 L 61.691406 23.296875 L 58.027344 42.140625 L 50.914062 42.140625 Z M 38.550781 23.183594 C 41.277344 23.183594 43.09375 23.683594 43.992188 24.6875 C 44.898438 25.6875 45.117188 27.410156 44.640625 29.863281 C 44.148438 32.410156 43.1875 34.226562 41.777344 35.3125 C 40.367188 36.398438 38.207031 36.941406 35.324219 36.941406 L 30.96875 36.941406 L 33.644531 23.171875 L 38.550781 23.171875 Z M 21.089844 50.875 L 28.253906 50.875 L 29.957031 42.128906 L 36.097656 42.128906 C 38.800781 42.128906 41.035156 41.847656 42.78125 41.273438 C 44.535156 40.710938 46.121094 39.75 47.550781 38.414062 C 48.753906 37.308594 49.722656 36.097656 50.464844 34.761719 C 51.207031 33.433594 51.738281 31.960938 52.054688 30.355469 C 52.816406 26.460938 52.242188 23.421875 50.339844 21.242188 C 48.441406 19.070312 45.410156 17.976562 41.265625 17.976562 L 27.480469 17.976562 Z M 77.019531 50.875 L 84.183594 50.875 L 85.886719 42.128906 L 92.027344 42.128906 C 94.730469 42.128906 96.964844 41.847656 98.710938 41.273438 C 100.464844 40.710938 102.050781 39.75 103.480469 38.414062 C 104.683594 37.308594 105.652344 36.097656 106.394531 34.761719 C 107.136719 33.433594 107.667969 31.960938 107.980469 30.355469 C 108.746094 26.460938 108.167969 23.421875 106.269531 21.242188 C 104.367188 19.070312 101.339844 17.976562 97.195312 17.976562 L 83.410156 17.976562 Z M 77.019531 50.875 "/>
</g>
</svg>
