<?xml version="1.0" encoding="UTF-8"?>
<svg xmlns="http://www.w3.org/2000/svg" xmlns:xlink="http://www.w3.org/1999/xlink" width="129px" height="146px" viewBox="0 0 129 96" version="1.1">
<g id="surface1">
<path style=" stroke:none;fill-rule:evenodd;fill:rgb(81.176471%,39.215686%,60.392157%);fill-opacity:1;" d="M 110.949219 55.125 C 106.441406 55.144531 102.546875 56.226562 99.277344 57.824219 C 98.074219 55.445312 96.867188 53.371094 96.660156 51.820312 C 96.429688 50.015625 96.15625 48.921875 96.429688 46.765625 C 96.699219 44.617188 97.957031 41.5625 97.957031 41.3125 C 97.9375 41.085938 97.6875 39.992188 95.085938 39.960938 C 92.5 39.9375 90.257812 40.460938 90.007812 41.136719 C 89.757812 41.8125 89.253906 43.367188 88.929688 44.960938 C 88.476562 47.316406 83.753906 55.644531 81.0625 60.023438 C 80.179688 58.324219 79.425781 56.824219 79.28125 55.625 C 79.050781 53.820312 78.777344 52.726562 79.050781 50.570312 C 79.324219 48.421875 80.578125 45.367188 80.578125 45.117188 C 80.558594 44.890625 80.308594 43.792969 77.710938 43.761719 C 75.121094 43.742188 72.878906 44.261719 72.628906 44.941406 C 72.378906 45.617188 72.105469 47.214844 71.550781 48.765625 C 71.027344 50.320312 64.742188 64.222656 63.105469 67.847656 C 62.277344 69.703125 61.546875 71.175781 61.023438 72.175781 C 60.5 73.175781 61 72.246094 60.949219 72.351562 C 60.5 73.207031 60.246094 73.675781 60.246094 73.675781 L 60.246094 73.695312 C 59.890625 74.320312 59.515625 74.925781 59.347656 74.925781 C 59.21875 74.925781 58.96875 73.25 59.398438 70.945312 C 60.332031 66.121094 62.59375 58.582031 62.5625 58.3125 C 62.5625 58.1875 62.992188 56.863281 61.105469 56.1875 C 59.273438 55.507812 58.613281 56.636719 58.464844 56.636719 C 58.320312 56.636719 58.195312 57.03125 58.195312 57.03125 C 58.195312 57.03125 60.226562 48.546875 54.296875 48.546875 C 50.578125 48.546875 45.445312 52.570312 42.910156 56.25 C 41.296875 57.125 37.882812 58.980469 34.257812 60.949219 C 32.875 61.699219 31.441406 62.503906 30.089844 63.222656 L 29.816406 62.917969 C 22.621094 55.320312 9.316406 49.921875 9.871094 39.667969 C 10.070312 35.9375 11.378906 26.109375 35.421875 14.207031 C 55.105469 4.449219 70.867188 7.128906 73.613281 13.078125 C 77.511719 21.585938 65.191406 37.394531 44.722656 39.667969 C 36.929688 40.542969 32.832031 37.542969 31.796875 36.414062 C 30.71875 35.238281 30.558594 35.1875 30.160156 35.414062 C 29.511719 35.769531 29.910156 36.8125 30.160156 37.4375 C 30.769531 39.011719 33.285156 41.8125 37.558594 43.210938 C 41.308594 44.441406 50.453125 45.109375 61.515625 40.855469 C 73.90625 36.082031 83.585938 22.816406 80.746094 11.734375 C 77.855469 0.46875 59.054688 -3.242188 41.277344 3.042969 C 30.695312 6.796875 19.226562 12.652344 10.980469 20.332031 C 1.175781 29.433594 -0.382812 37.386719 0.265625 40.6875 C 2.550781 52.476562 18.871094 60.148438 25.40625 65.828125 C 25.082031 66.003906 24.777344 66.183594 24.503906 66.328125 C 21.238281 67.933594 8.792969 74.40625 5.671875 81.261719 C 2.152344 89.015625 6.226562 94.601562 8.9375 95.355469 C 17.339844 97.679688 25.941406 93.5 30.589844 86.621094 C 35.222656 79.742188 34.667969 70.808594 32.53125 66.734375 L 32.457031 66.589844 L 35.023438 65.085938 C 36.675781 64.109375 38.3125 63.210938 39.746094 62.441406 C 38.941406 64.617188 38.363281 67.191406 38.058594 70.945312 C 37.703125 75.34375 39.515625 81.054688 41.90625 83.304688 C 42.960938 84.285156 44.21875 84.304688 44.996094 84.304688 C 47.761719 84.304688 49.015625 82.035156 50.398438 79.304688 C 52.109375 75.980469 53.617188 72.121094 53.617188 72.121094 C 53.617188 72.121094 51.730469 82.554688 56.882812 82.554688 C 58.769531 82.554688 60.65625 80.125 61.515625 78.875 L 61.515625 78.898438 C 61.515625 78.898438 61.566406 78.824219 61.660156 78.648438 C 61.765625 78.492188 61.871094 78.335938 61.964844 78.167969 L 61.964844 78.117188 C 62.71875 76.8125 64.40625 73.84375 66.917969 68.914062 C 70.167969 62.554688 73.277344 54.601562 73.277344 54.601562 C 73.277344 54.601562 73.582031 56.550781 74.515625 59.75 C 75.070312 61.648438 76.273438 63.734375 77.207031 65.753906 C 76.453125 66.808594 76 67.402344 76 67.402344 L 76.023438 67.421875 C 75.414062 68.222656 74.746094 69.070312 74.03125 69.921875 C 71.464844 72.976562 68.398438 76.449219 68 77.449219 C 67.515625 78.625 67.621094 79.5 68.554688 80.199219 C 69.234375 80.699219 70.441406 80.804688 71.71875 80.699219 C 74.03125 80.554688 75.636719 79.96875 76.441406 79.625 C 77.699219 79.179688 79.132812 78.5 80.515625 77.5 C 83.03125 75.644531 84.558594 73.019531 84.414062 69.515625 C 84.339844 67.589844 83.710938 65.691406 82.925781 63.890625 C 83.15625 63.566406 83.375 63.242188 83.605469 62.886719 C 87.578125 57.113281 90.644531 50.757812 90.644531 50.757812 C 90.644531 50.757812 90.949219 52.707031 91.882812 55.90625 C 92.363281 57.53125 93.316406 59.304688 94.164062 61.054688 C 90.449219 64.078125 88.109375 67.578125 87.304688 69.882812 C 85.816406 74.132812 86.980469 76.0625 89.167969 76.511719 C 90.152344 76.707031 91.558594 76.261719 92.617188 75.8125 C 93.925781 75.382812 95.507812 74.664062 96.964844 73.582031 C 99.476562 71.726562 101.886719 69.152344 101.761719 65.679688 C 101.6875 64.078125 101.257812 62.503906 100.679688 61 C 103.84375 59.699219 107.953125 58.949219 113.148438 59.574219 C 124.335938 60.875 126.546875 67.828125 126.125 70.726562 C 125.695312 73.625 123.359375 75.226562 122.585938 75.730469 C 121.808594 76.207031 121.558594 76.375 121.632812 76.730469 C 121.738281 77.25 122.082031 77.230469 122.761719 77.125 C 123.695312 76.980469 128.652344 74.75 128.851562 69.390625 C 129.152344 62.554688 122.585938 55.050781 110.949219 55.125 Z M 24.664062 84.066406 C 20.964844 88.089844 15.757812 89.621094 13.546875 88.320312 C 11.160156 86.941406 12.09375 81.011719 16.636719 76.738281 C 19.402344 74.132812 22.996094 71.738281 25.363281 70.257812 C 25.886719 69.933594 26.695312 69.453125 27.648438 68.882812 C 27.792969 68.777344 27.898438 68.734375 27.898438 68.734375 C 28.078125 68.632812 28.277344 68.507812 28.476562 68.378906 C 30.160156 74.488281 28.558594 79.835938 24.664062 84.066406 Z M 51.6875 65.785156 C 50.410156 68.914062 47.6875 76.949219 46.054688 76.488281 C 44.648438 76.113281 43.789062 70.039062 45.78125 64.035156 C 46.785156 61.011719 48.921875 57.40625 50.179688 56.007812 C 52.210938 53.757812 54.433594 53.007812 54.976562 53.933594 C 55.636719 55.125 52.496094 63.828125 51.6875 65.785156 Z M 73.992188 76.386719 C 73.433594 76.65625 72.933594 76.863281 72.710938 76.707031 C 72.535156 76.605469 72.941406 76.230469 72.941406 76.230469 C 72.941406 76.230469 75.730469 73.25 76.839844 71.871094 C 77.46875 71.070312 78.222656 70.140625 79.027344 69.101562 L 79.027344 69.402344 C 79.019531 73.007812 75.550781 75.414062 73.992188 76.386719 Z M 91.191406 72.488281 C 90.792969 72.183594 90.835938 71.257812 92.195312 68.359375 C 92.71875 67.214844 93.933594 65.285156 96.019531 63.460938 C 96.273438 64.210938 96.417969 64.941406 96.398438 65.609375 C 96.367188 70.109375 93.148438 71.789062 91.191406 72.488281 Z M 91.191406 72.488281 "/>
</g>
</svg>
