<svg id="Livello_1" data-name="Livello 1" xmlns="http://www.w3.org/2000/svg" viewBox="0 0 915.12 774.94">
  <defs>
    <style>
      .cls-1 {
        fill: #f8fbfe;
      }

      .cls-2 {
        fill: #1b8faf;
      }

      .cls-3 {
        fill: #ffffe6;
      }
    </style>
  </defs>
  <title>Logo Franco</title>
  <g>
    <rect class="cls-1" x="398.97" y="472.05" width="68.76" height="229.14" transform="translate(499.29 -247.14) rotate(45)"/>
    <rect class="cls-2" x="218.71" y="64.73" width="103.28" height="551.43" rx="8.61" ry="8.61" transform="translate(178.35 659.8) rotate(-135)"/>
    <rect class="cls-2" x="363.06" y="211.13" width="103.28" height="549.6" transform="translate(321.88 1010.25) rotate(-135)"/>
    <rect class="cls-3" x="346.95" y="105.34" width="103.28" height="506.12" transform="translate(384.57 781.15) rotate(-135)"/>
    <rect class="cls-3" x="426.16" y="566.16" width="103.28" height="307.91" transform="translate(1282.41 778.94) rotate(135)"/>
    <rect class="cls-2" x="389.36" y="135.45" width="65.79" height="159.44" transform="translate(526.25 553.38) rotate(-135)"/>
    <rect class="cls-2" x="219.87" y="383.85" width="103.28" height="551.43" rx="8.61" ry="8.61" transform="translate(-429.3 272.64) rotate(-45)"/>
    <rect class="cls-2" x="390.32" y="705.78" width="65.79" height="158.73" transform="translate(1235.21 928.54) rotate(135)"/>
    <rect class="cls-3" x="396.68" y="486.74" width="103.28" height="227.74" rx="8.61" ry="8.61" transform="translate(513.56 -253.63) rotate(45)"/>
    <rect class="cls-3" x="678.01" y="68.58" width="103.28" height="551.43" rx="8.61" ry="8.61" transform="translate(1446.6 -40.74) rotate(135)"/>
    <rect class="cls-3" x="679.61" y="386.26" width="103.28" height="546.92" rx="8.61" ry="8.61" transform="translate(739.38 1530.75) rotate(-135)"/>
  </g>
</svg>
